<svg width="122" height="102" viewBox="0 0 122 102" fill="none" xmlns="http://www.w3.org/2000/svg">
<g filter="url(#filter0_d_248_11340)">
<circle cx="61" cy="47" r="25" fill="white"/>
<circle cx="61" cy="47" r="24.5" stroke="#DCEAFA"/>
</g>
<path d="M52.0383 46.5464L58.1156 40.4689C58.2891 40.2954 58.5203 40.2002 58.7668 40.2002C59.0136 40.2002 59.2447 40.2956 59.4182 40.4689L59.97 41.0208C60.1433 41.194 60.2388 41.4254 60.2388 41.6721C60.2388 41.9186 60.1433 42.1577 59.97 42.331L56.4245 45.8842H67.6885C68.1964 45.8842 68.5977 46.2818 68.5977 46.7898V47.57C68.5977 48.078 68.1964 48.5157 67.6885 48.5157H56.3843L59.9698 52.0887C60.1432 52.2622 60.2387 52.4873 60.2387 52.7339C60.2387 52.9804 60.1432 53.2087 59.9698 53.382L59.4181 53.9322C59.2446 54.1057 59.0135 54.2002 58.7667 54.2002C58.5201 54.2002 58.2889 54.1044 58.1154 53.9309L52.0381 47.8536C51.8642 47.6796 51.7686 47.4473 51.7693 47.2003C51.7687 46.9526 51.8642 46.7201 52.0383 46.5464Z" fill="#223B59"/>
<defs>
<filter id="filter0_d_248_11340" x="0" y="0" width="122" height="122" filterUnits="userSpaceOnUse" color-interpolation-filters="sRGB">
<feFlood flood-opacity="0" result="BackgroundImageFix"/>
<feColorMatrix in="SourceAlpha" type="matrix" values="0 0 0 0 0 0 0 0 0 0 0 0 0 0 0 0 0 0 127 0" result="hardAlpha"/>
<feOffset dy="14"/>
<feGaussianBlur stdDeviation="18"/>
<feComposite in2="hardAlpha" operator="out"/>
<feColorMatrix type="matrix" values="0 0 0 0 0.41502 0 0 0 0 0.658762 0 0 0 0 1 0 0 0 0.16 0"/>
<feBlend mode="normal" in2="BackgroundImageFix" result="effect1_dropShadow_248_11340"/>
<feBlend mode="normal" in="SourceGraphic" in2="effect1_dropShadow_248_11340" result="shape"/>
</filter>
</defs>
</svg>
