<svg xmlns="http://www.w3.org/2000/svg" width="32" height="32" viewBox="0 0 32 32">
    <rect width="32" height="32" fill="#2b6aff" opacity="0.12" rx="8"/>
    <path fill="#2b6aff" d="M1.875-7.5A1.875 1.875 0 0 0 0-9.375 1.875 1.875 0 0 0-1.875-7.5 1.875 1.875 0 0 0 0-5.625 1.875 1.875 0 0 0 1.875-7.5zm4.688-1.875A1.875 1.875 0 0 0 4.688-7.5a1.875 1.875 0 0 0 1.875 1.875A1.875 1.875 0 0 0 8.438-7.5a1.875 1.875 0 0 0-1.875-1.875zm-13.125 0A1.875 1.875 0 0 0-8.437-7.5a1.875 1.875 0 0 0 1.875 1.875A1.875 1.875 0 0 0-4.687-7.5a1.875 1.875 0 0 0-1.875-1.875z" transform="translate(16 24)"/>
</svg>
