<svg width="361" height="106" viewBox="0 0 361 106" fill="none" xmlns="http://www.w3.org/2000/svg">
<rect x="16" y="8" width="345" height="73" rx="20" fill="url(#paint0_linear_4621_52656)" fill-opacity="0.1"/>
<g filter="url(#filter0_d_4621_52656)">
<path d="M36 44C36 31.8497 45.8497 22 58 22C70.1503 22 80 31.8497 80 44C80 56.1503 70.1503 66 58 66C45.8497 66 36 56.1503 36 44Z" fill="white"/>
<path d="M58 22.5C69.8741 22.5 79.5 32.1259 79.5 44C79.5 55.8741 69.8741 65.5 58 65.5C46.1259 65.5 36.5 55.8741 36.5 44C36.5 32.1259 46.1259 22.5 58 22.5Z" stroke="#DCEAFA"/>
</g>
<path d="M63.8334 44H52.1667M52.1667 44L57.1667 49M52.1667 44L57.1667 39" stroke="#324153" stroke-width="2" stroke-linecap="round" stroke-linejoin="round"/>
<path d="M239.573 42.56C239.466 42.56 239.376 42.5227 239.301 42.448C239.226 42.3733 239.189 42.2827 239.189 42.176V41.248C239.189 41.1413 239.226 41.0507 239.301 40.976C239.376 40.9013 239.466 40.864 239.573 40.864H243.509C244.448 40.864 245.226 41.008 245.845 41.296C246.474 41.5733 246.949 42.0053 247.269 42.592C247.589 43.168 247.749 43.8933 247.749 44.768V49.616C247.749 49.7227 247.712 49.8133 247.637 49.888C247.562 49.9627 247.472 50 247.365 50H246.101C245.984 50 245.888 49.968 245.813 49.904C245.749 49.8293 245.717 49.7333 245.717 49.616V44.848C245.717 44.1227 245.53 43.5627 245.157 43.168C244.794 42.7627 244.213 42.56 243.413 42.56H239.573ZM241.301 41.616H241.845C242.08 41.616 242.24 41.664 242.325 41.76C242.421 41.856 242.458 41.968 242.437 42.096C242.341 42.48 242.261 42.8427 242.197 43.184C242.144 43.5147 242.101 43.8507 242.069 44.192C242.048 44.5333 242.037 44.912 242.037 45.328L242.117 49.616C242.117 49.7227 242.08 49.8133 242.005 49.888C241.941 49.9627 241.85 50 241.733 50L238.949 49.984C238.842 49.984 238.752 49.9467 238.677 49.872C238.602 49.7973 238.565 49.7067 238.565 49.6V48.736C238.565 48.6293 238.602 48.5387 238.677 48.464C238.752 48.3893 238.842 48.352 238.949 48.352L240.213 48.368V45.376C240.213 44.9813 240.218 44.6133 240.229 44.272C240.25 43.9307 240.288 43.584 240.341 43.232C240.405 42.88 240.496 42.496 240.613 42.08C240.656 41.952 240.725 41.8453 240.821 41.76C240.917 41.664 241.077 41.616 241.301 41.616ZM250.142 46.256C250.035 46.256 249.945 46.2187 249.87 46.144C249.795 46.0693 249.758 45.9787 249.758 45.872V41.248C249.758 41.1413 249.795 41.0507 249.87 40.976C249.945 40.9013 250.035 40.864 250.142 40.864H251.47C251.587 40.864 251.678 40.9013 251.742 40.976C251.817 41.0507 251.854 41.1413 251.854 41.248V45.872C251.854 45.9787 251.817 46.0693 251.742 46.144C251.678 46.2187 251.587 46.256 251.47 46.256H250.142ZM258.811 48.416C259.44 48.4267 259.979 48.3093 260.427 48.064C260.886 47.808 261.238 47.456 261.483 47.008C261.739 46.56 261.867 46.048 261.867 45.472V41.248C261.867 41.1307 261.899 41.04 261.963 40.976C262.038 40.9013 262.134 40.864 262.251 40.864H263.371C263.488 40.864 263.579 40.9013 263.643 40.976C263.718 41.0507 263.755 41.1413 263.755 41.248V45.584C263.755 46.2773 263.638 46.9067 263.403 47.472C263.179 48.0373 262.859 48.5173 262.443 48.912C262.027 49.3067 261.536 49.6107 260.971 49.824C260.416 50.0267 259.808 50.1227 259.147 50.112H257.787C257.008 50.112 256.326 49.952 255.739 49.632C255.152 49.3013 254.694 48.8533 254.363 48.288C254.043 47.712 253.883 47.0613 253.883 46.336V41.248C253.883 41.1413 253.92 41.0507 253.995 40.976C254.07 40.9013 254.16 40.864 254.267 40.864H255.403C255.51 40.864 255.6 40.9013 255.675 40.976C255.75 41.04 255.787 41.1307 255.787 41.248L255.819 45.6C255.819 46.5067 256.059 47.2053 256.539 47.696C257.03 48.176 257.638 48.416 258.363 48.416H258.811ZM255.515 46.944L255.499 45.472C256.139 45.4613 256.635 45.3547 256.987 45.152C257.339 44.9387 257.584 44.6507 257.723 44.288C257.862 43.9147 257.931 43.488 257.931 43.008V41.264C257.931 41.1467 257.963 41.0507 258.027 40.976C258.102 40.9013 258.198 40.864 258.315 40.864H259.435C259.542 40.864 259.632 40.9013 259.707 40.976C259.782 41.0507 259.819 41.1467 259.819 41.264V43.056C259.819 43.8453 259.659 44.5333 259.339 45.12C259.019 45.696 258.539 46.144 257.899 46.464C257.259 46.784 256.464 46.944 255.515 46.944ZM269.616 50C269.381 50 269.264 49.8827 269.264 49.648V44.336C269.264 43.6853 269.339 43.184 269.488 42.832C269.637 42.4693 269.845 42.288 270.112 42.288H272.176C271.909 42.288 271.691 42.5013 271.52 42.928C271.36 43.344 271.28 43.8613 271.28 44.48V49.648C271.28 49.7547 271.237 49.84 271.152 49.904C271.067 49.968 270.971 50 270.864 50H269.616ZM265.584 42.56C265.477 42.56 265.387 42.5227 265.312 42.448C265.237 42.3733 265.2 42.2827 265.2 42.176V41.248C265.2 41.1413 265.237 41.0507 265.312 40.976C265.387 40.9013 265.477 40.864 265.584 40.864H272.576C272.693 40.864 272.784 40.9013 272.848 40.976C272.923 41.0507 272.96 41.1413 272.96 41.248V42.176C272.96 42.2827 272.923 42.3733 272.848 42.448C272.784 42.5227 272.693 42.56 272.576 42.56H265.584ZM275.066 50C274.959 50 274.869 49.9627 274.794 49.888C274.719 49.8133 274.682 49.7227 274.682 49.616V41.248C274.682 41.1413 274.719 41.0507 274.794 40.976C274.869 40.9013 274.959 40.864 275.066 40.864H276.394C276.501 40.864 276.591 40.9013 276.666 40.976C276.741 41.0507 276.778 41.1413 276.778 41.248V49.616C276.778 49.7227 276.741 49.8133 276.666 49.888C276.591 49.9627 276.501 50 276.394 50H275.066ZM279.363 50C279.256 50 279.166 49.9627 279.091 49.888C279.016 49.8133 278.979 49.7227 278.979 49.616V41.248C278.979 41.1413 279.016 41.0507 279.091 40.976C279.166 40.9013 279.256 40.864 279.363 40.864H282.787C283.736 40.864 284.52 41.0027 285.139 41.28C285.768 41.5573 286.238 41.9893 286.547 42.576C286.867 43.1627 287.027 43.9147 287.027 44.832V49.616C287.027 49.7227 286.99 49.8133 286.915 49.888C286.84 49.9627 286.75 50 286.643 50H285.379C285.272 50 285.182 49.968 285.107 49.904C285.032 49.8293 284.995 49.7333 284.995 49.616V44.848C284.995 44.1227 284.814 43.5627 284.451 43.168C284.088 42.7627 283.507 42.56 282.707 42.56H281.011V49.616C281.011 49.7227 280.974 49.8133 280.899 49.888C280.824 49.9627 280.734 50 280.627 50H279.363ZM293.464 42.56C293.357 42.56 293.266 42.5227 293.192 42.448C293.117 42.3733 293.08 42.2827 293.08 42.176V41.248C293.08 41.1413 293.117 41.0507 293.192 40.976C293.266 40.9013 293.357 40.864 293.464 40.864H297.4C298.338 40.864 299.117 41.008 299.736 41.296C300.365 41.5733 300.84 42.0053 301.16 42.592C301.48 43.168 301.64 43.8933 301.64 44.768V49.616C301.64 49.7227 301.602 49.8133 301.528 49.888C301.453 49.9627 301.362 50 301.256 50H299.992C299.874 50 299.778 49.968 299.704 49.904C299.64 49.8293 299.608 49.7333 299.608 49.616V44.848C299.608 44.1227 299.421 43.5627 299.048 43.168C298.685 42.7627 298.104 42.56 297.304 42.56H293.464ZM295.192 41.616H295.736C295.97 41.616 296.13 41.664 296.216 41.76C296.312 41.856 296.349 41.968 296.328 42.096C296.232 42.48 296.152 42.8427 296.088 43.184C296.034 43.5147 295.992 43.8507 295.96 44.192C295.938 44.5333 295.928 44.912 295.928 45.328L296.008 49.616C296.008 49.7227 295.97 49.8133 295.896 49.888C295.832 49.9627 295.741 50 295.624 50L292.84 49.984C292.733 49.984 292.642 49.9467 292.568 49.872C292.493 49.7973 292.456 49.7067 292.456 49.6V48.736C292.456 48.6293 292.493 48.5387 292.568 48.464C292.642 48.3893 292.733 48.352 292.84 48.352L294.104 48.368V45.376C294.104 44.9813 294.109 44.6133 294.12 44.272C294.141 43.9307 294.178 43.584 294.232 43.232C294.296 42.88 294.386 42.496 294.504 42.08C294.546 41.952 294.616 41.8453 294.712 41.76C294.808 41.664 294.968 41.616 295.192 41.616ZM304.129 50C304.022 50 303.931 49.9627 303.857 49.888C303.782 49.8133 303.745 49.7227 303.745 49.616V41.248C303.745 41.1413 303.782 41.0507 303.857 40.976C303.931 40.9013 304.022 40.864 304.129 40.864H305.457C305.563 40.864 305.654 40.9013 305.729 40.976C305.803 41.0507 305.841 41.1413 305.841 41.248V49.616C305.841 49.7227 305.803 49.8133 305.729 49.888C305.654 49.9627 305.563 50 305.457 50H304.129ZM308.426 50C308.319 50 308.228 49.9627 308.154 49.888C308.079 49.8133 308.042 49.7227 308.042 49.616V41.248C308.042 41.1413 308.079 41.0507 308.154 40.976C308.228 40.9013 308.319 40.864 308.426 40.864H311.85C312.799 40.864 313.583 41.0027 314.202 41.28C314.831 41.5573 315.3 41.9893 315.61 42.576C315.93 43.1627 316.09 43.9147 316.09 44.832V49.616C316.09 49.7227 316.052 49.8133 315.977 49.888C315.903 49.9627 315.812 50 315.706 50H314.442C314.335 50 314.244 49.968 314.17 49.904C314.095 49.8293 314.058 49.7333 314.058 49.616V44.848C314.058 44.1227 313.876 43.5627 313.514 43.168C313.151 42.7627 312.57 42.56 311.77 42.56H310.074V49.616C310.074 49.7227 310.036 49.8133 309.962 49.888C309.887 49.9627 309.796 50 309.69 50H308.426ZM318.534 50C318.427 50 318.336 49.9627 318.262 49.888C318.187 49.8133 318.15 49.7227 318.15 49.616V48.624C318.15 48.5173 318.187 48.4267 318.262 48.352C318.336 48.2773 318.427 48.24 318.534 48.24H320.838C321.638 48.24 322.219 48.0427 322.582 47.648C322.955 47.2427 323.163 46.6773 323.206 45.952C323.216 45.7387 323.222 45.568 323.222 45.44C323.222 45.3013 323.216 45.1253 323.206 44.912C323.174 44.1867 322.971 43.6267 322.598 43.232C322.224 42.8267 321.638 42.624 320.838 42.624H318.534C318.427 42.624 318.336 42.5867 318.262 42.512C318.187 42.4373 318.15 42.3467 318.15 42.24V41.248C318.15 41.1413 318.187 41.0507 318.262 40.976C318.336 40.9013 318.427 40.864 318.534 40.864H320.918C321.899 40.864 322.694 41.0293 323.302 41.36C323.92 41.68 324.379 42.144 324.678 42.752C324.976 43.3493 325.136 44.064 325.158 44.896C325.168 45.0987 325.174 45.28 325.174 45.44C325.174 45.5893 325.168 45.7653 325.158 45.968C325.136 46.7893 324.976 47.504 324.678 48.112C324.379 48.72 323.92 49.1893 323.302 49.52C322.694 49.84 321.899 50 320.918 50H318.534ZM327.41 50C327.303 50 327.213 49.9627 327.138 49.888C327.063 49.8133 327.026 49.7227 327.026 49.616V41.248C327.026 41.1413 327.063 41.0507 327.138 40.976C327.213 40.9013 327.303 40.864 327.41 40.864H328.738C328.845 40.864 328.935 40.9013 329.01 40.976C329.085 41.0507 329.122 41.1413 329.122 41.248V49.616C329.122 49.7227 329.085 49.8133 329.01 49.888C328.935 49.9627 328.845 50 328.738 50H327.41ZM331.275 50C331.157 50 331.061 49.9627 330.987 49.888C330.912 49.8133 330.875 49.7227 330.875 49.616V48.688C330.875 48.5813 330.912 48.4907 330.987 48.416C331.061 48.3413 331.157 48.304 331.275 48.304H336.091V49.664C336.091 49.7707 336.053 49.856 335.979 49.92C335.904 49.9733 335.813 50 335.707 50H331.275ZM334.619 50C334.512 50 334.427 49.9627 334.363 49.888C334.299 49.8133 334.256 49.7227 334.235 49.616L333.979 44.688C333.957 44.2187 333.909 43.824 333.835 43.504C333.771 43.1733 333.643 42.9227 333.451 42.752C333.269 42.5707 332.976 42.48 332.571 42.48H331.835C331.728 42.48 331.637 42.4427 331.563 42.368C331.488 42.2933 331.451 42.2027 331.451 42.096V41.184C331.451 41.0773 331.488 40.9867 331.563 40.912C331.637 40.8373 331.728 40.8 331.835 40.8H332.603C333.253 40.8 333.792 40.8853 334.219 41.056C334.656 41.216 335.003 41.4613 335.259 41.792C335.525 42.1227 335.717 42.5333 335.835 43.024C335.963 43.504 336.043 44.0533 336.075 44.672L336.331 49.616C336.341 49.7227 336.309 49.8133 336.235 49.888C336.16 49.9627 336.064 50 335.947 50H334.619Z" fill="white"/>
<defs>
<filter id="filter0_d_4621_52656" x="0" y="0" width="116" height="116" filterUnits="userSpaceOnUse" color-interpolation-filters="sRGB">
<feFlood flood-opacity="0" result="BackgroundImageFix"/>
<feColorMatrix in="SourceAlpha" type="matrix" values="0 0 0 0 0 0 0 0 0 0 0 0 0 0 0 0 0 0 127 0" result="hardAlpha"/>
<feOffset dy="14"/>
<feGaussianBlur stdDeviation="18"/>
<feComposite in2="hardAlpha" operator="out"/>
<feColorMatrix type="matrix" values="0 0 0 0 0.41502 0 0 0 0 0.658762 0 0 0 0 1 0 0 0 0.16 0"/>
<feBlend mode="normal" in2="BackgroundImageFix" result="effect1_dropShadow_4621_52656"/>
<feBlend mode="normal" in="SourceGraphic" in2="effect1_dropShadow_4621_52656" result="shape"/>
</filter>
<linearGradient id="paint0_linear_4621_52656" x1="16" y1="44.5" x2="361" y2="44.5" gradientUnits="userSpaceOnUse">
<stop stop-color="#EFF7FF"/>
<stop offset="1" stop-color="#F9FCFF"/>
</linearGradient>
</defs>
</svg>
