<svg width="15" height="17" viewBox="0 0 15 17" fill="none" xmlns="http://www.w3.org/2000/svg">
<path d="M0.75 5.59849H13.6793M0.75 5.59849V12.7098C0.75 13.6149 0.75 14.0672 0.926151 14.4129C1.0811 14.717 1.32816 14.9645 1.63226 15.1195C1.97764 15.2955 2.43 15.2955 3.33336 15.2955H11.0959C11.9993 15.2955 12.451 15.2955 12.7964 15.1195C13.1005 14.9645 13.3484 14.717 13.5033 14.4129C13.6793 14.0676 13.6793 13.6159 13.6793 12.7125V5.59849M0.75 5.59849V4.95218C0.75 4.04704 0.75 3.59414 0.926151 3.24842C1.0811 2.94432 1.32816 2.69726 1.63226 2.54231C1.97798 2.36616 2.43088 2.36616 3.33602 2.36616H3.98232M13.6793 5.59849V4.94952C13.6793 4.04616 13.6793 3.5938 13.5033 3.24842C13.3484 2.94432 13.1005 2.69726 12.7964 2.54231C12.4507 2.36616 11.9987 2.36616 11.0936 2.36616H10.447M10.447 0.75V2.36616M10.447 2.36616H3.98232M3.98232 0.75V2.36616" stroke="white" stroke-width="1.5" stroke-linecap="round" stroke-linejoin="round"/>
</svg>
