<svg width="24" height="24" viewBox="0 0 24 24" fill="none" xmlns="http://www.w3.org/2000/svg">
<path d="M5 9.33333H19M5 9.33333V17.1557C5 18.1514 5 18.6489 5.19074 19.0292C5.35852 19.3637 5.62604 19.636 5.95532 19.8064C6.3293 20 6.81912 20 7.7973 20H16.2027C17.1809 20 17.67 20 18.044 19.8064C18.3733 19.636 18.6417 19.3637 18.8094 19.0292C19 18.6493 19 18.1524 19 17.1587V9.33333M5 9.33333V8.6224C5 7.62675 5 7.12855 5.19074 6.74826C5.35852 6.41375 5.62604 6.14199 5.95532 5.97154C6.32967 5.77778 6.82008 5.77778 7.80017 5.77778H8.5M19 9.33333V8.61948C19 7.62577 19 7.12818 18.8094 6.74826C18.6417 6.41375 18.3733 6.14199 18.044 5.97154C17.6696 5.77778 17.1803 5.77778 16.2002 5.77778H15.5M8.5 5.77778H15.5M8.5 5.77778V4M15.5 5.77778V4M11.7812 16.4444C11.9021 16.4444 12 16.345 12 16.2222V13.1111C12 12.9884 11.9021 12.8889 11.7812 12.8889H8.71875C8.59794 12.8889 8.5 12.9884 8.5 13.1111V16.2222C8.5 16.345 8.59794 16.4444 8.71875 16.4444H11.7812Z" stroke="#324153" stroke-width="1.5" stroke-linecap="round" stroke-linejoin="round"/>
</svg>
