<svg width="24" height="24" viewBox="0 0 24 24" fill="none" xmlns="http://www.w3.org/2000/svg">
<path d="M5 9.33333H19M5 9.33333V17.1557C5 18.1514 5 18.6489 5.19074 19.0292C5.35852 19.3637 5.62604 19.636 5.95532 19.8064C6.3293 20 6.81912 20 7.7973 20H16.2031C17.1813 20 17.6704 20 18.0444 19.8064C18.3737 19.636 18.6417 19.3637 18.8094 19.0292C19 18.6493 19 18.1524 19 17.1587V9.33333M5 9.33333V8.6224C5 7.62675 5 7.12855 5.19074 6.74826C5.35852 6.41375 5.62604 6.14199 5.95532 5.97154C6.32967 5.77778 6.82008 5.77778 7.80017 5.77778H8.5M19 9.33333V8.61948C19 7.62577 19 7.12818 18.8094 6.74826C18.6417 6.41375 18.3737 6.14199 18.0444 5.97154C17.6701 5.77778 17.1803 5.77778 16.2002 5.77778H15.5M8.5 5.77778H15.5M8.5 5.77778V4M15.5 5.77778V4M13.75 16.4444L12 14.6667M12 14.6667L10.25 12.8889M12 14.6667L13.75 12.8889M12 14.6667L10.25 16.4445" stroke="#324153" stroke-width="1.5" stroke-linecap="round" stroke-linejoin="round"/>
</svg>
