<svg width="393" height="678" viewBox="0 0 393 678" fill="none" xmlns="http://www.w3.org/2000/svg">
<g filter="url(#filter0_d_4621_52649)">
<circle cx="197" cy="335" r="145" fill="#F0F5FB"/>
<circle cx="197" cy="335" r="132" stroke="#BFFFEA" stroke-width="26"/>
</g>
<g filter="url(#filter1_d_4621_52649)">
<circle cx="197" cy="335" r="118" fill="white"/>
</g>
<path d="M151.8 330.232C151.68 330.232 151.578 330.19 151.494 330.106C151.422 330.034 151.386 329.938 151.386 329.818V318.136C151.386 318.016 151.422 317.92 151.494 317.848C151.578 317.764 151.68 317.722 151.8 317.722H152.61C152.742 317.722 152.844 317.764 152.916 317.848C152.988 317.92 153.024 318.016 153.024 318.136V329.818C153.024 329.938 152.988 330.034 152.916 330.106C152.844 330.19 152.742 330.232 152.61 330.232H151.8ZM156.212 328C156.092 328 155.99 327.964 155.906 327.892C155.834 327.808 155.798 327.706 155.798 327.586V318.136C155.798 318.016 155.834 317.92 155.906 317.848C155.99 317.764 156.092 317.722 156.212 317.722H157.058C157.19 317.722 157.292 317.764 157.364 317.848C157.436 317.92 157.472 318.016 157.472 318.136V327.586C157.472 327.706 157.436 327.808 157.364 327.892C157.292 327.964 157.19 328 157.058 328H156.212ZM160.155 328.99C160.035 329.038 159.921 329.026 159.813 328.954C159.705 328.894 159.651 328.804 159.651 328.684V328.072C159.651 327.964 159.675 327.862 159.723 327.766C159.771 327.67 159.849 327.61 159.957 327.586L163.755 326.326C164.439 326.098 164.967 325.804 165.339 325.444C165.711 325.084 165.969 324.664 166.113 324.184C166.269 323.704 166.347 323.182 166.347 322.618V318.136C166.347 318.016 166.383 317.92 166.455 317.848C166.539 317.764 166.641 317.722 166.761 317.722H167.571C167.691 317.722 167.787 317.764 167.859 317.848C167.943 317.92 167.985 318.016 167.985 318.136V323.122C167.985 323.818 167.823 324.478 167.499 325.102C167.187 325.714 166.743 326.254 166.167 326.722C165.591 327.178 164.907 327.526 164.115 327.766L160.155 328.99ZM162.513 327.568L159.975 318.442C159.951 318.346 159.927 318.274 159.903 318.226C159.891 318.178 159.885 318.13 159.885 318.082C159.885 317.986 159.921 317.902 159.993 317.83C160.065 317.758 160.149 317.722 160.245 317.722H161.127C161.355 317.722 161.493 317.812 161.541 317.992L164.043 327.154L162.513 327.568ZM175.764 326.65C176.544 326.662 177.198 326.518 177.726 326.218C178.266 325.918 178.674 325.492 178.95 324.94C179.238 324.376 179.382 323.734 179.382 323.014V318.136C179.382 318.016 179.418 317.92 179.49 317.848C179.574 317.764 179.676 317.722 179.796 317.722H180.534C180.666 317.722 180.768 317.764 180.84 317.848C180.912 317.92 180.948 318.016 180.948 318.136V323.14C180.948 323.908 180.828 324.604 180.588 325.228C180.348 325.84 180.006 326.368 179.562 326.812C179.118 327.244 178.59 327.574 177.978 327.802C177.378 328.03 176.712 328.132 175.98 328.108H174.63C173.85 328.108 173.148 327.928 172.524 327.568C171.9 327.208 171.408 326.704 171.048 326.056C170.688 325.408 170.508 324.658 170.508 323.806V318.136C170.508 318.016 170.544 317.92 170.616 317.848C170.7 317.764 170.802 317.722 170.922 317.722H171.678C171.798 317.722 171.894 317.764 171.966 317.848C172.05 317.92 172.092 318.016 172.092 318.136L172.146 323.446C172.146 324.478 172.434 325.27 173.01 325.822C173.586 326.374 174.318 326.65 175.206 326.65H175.764ZM171.768 324.544L171.732 323.23C172.62 323.218 173.298 323.086 173.766 322.834C174.234 322.57 174.558 322.222 174.738 321.79C174.93 321.358 175.026 320.884 175.026 320.368V318.136C175.026 318.016 175.062 317.92 175.134 317.848C175.206 317.764 175.308 317.722 175.44 317.722H176.178C176.298 317.722 176.394 317.764 176.466 317.848C176.55 317.92 176.592 318.016 176.592 318.136V320.44C176.592 321.22 176.418 321.922 176.07 322.546C175.722 323.17 175.188 323.662 174.468 324.022C173.76 324.382 172.86 324.556 171.768 324.544ZM188.598 319.162C188.478 319.162 188.376 319.126 188.292 319.054C188.22 318.97 188.184 318.868 188.184 318.748V318.136C188.184 318.016 188.22 317.92 188.292 317.848C188.376 317.764 188.478 317.722 188.598 317.722H192.504C193.536 317.722 194.388 317.89 195.06 318.226C195.744 318.55 196.254 319.042 196.59 319.702C196.926 320.35 197.094 321.154 197.094 322.114V327.586C197.094 327.706 197.052 327.808 196.968 327.892C196.896 327.964 196.8 328 196.68 328H195.87C195.738 328 195.636 327.964 195.564 327.892C195.492 327.808 195.456 327.706 195.456 327.586V322.204C195.456 321.244 195.21 320.5 194.718 319.972C194.238 319.432 193.464 319.162 192.396 319.162H188.598ZM190.218 318.28H190.668C190.848 318.28 190.98 318.328 191.064 318.424C191.16 318.508 191.202 318.616 191.19 318.748C191.094 319.252 191.01 319.708 190.938 320.116C190.878 320.524 190.836 320.932 190.812 321.34C190.788 321.736 190.776 322.186 190.776 322.69L190.812 327.586C190.812 327.706 190.776 327.808 190.704 327.892C190.632 327.964 190.536 328 190.416 328L187.86 327.964C187.74 327.964 187.638 327.928 187.554 327.856C187.482 327.784 187.446 327.682 187.446 327.55V326.974C187.446 326.854 187.482 326.758 187.554 326.686C187.638 326.602 187.74 326.56 187.86 326.56L189.246 326.578V322.762C189.246 322.27 189.252 321.82 189.264 321.412C189.276 320.992 189.312 320.572 189.372 320.152C189.432 319.732 189.528 319.258 189.66 318.73C189.696 318.598 189.75 318.49 189.822 318.406C189.906 318.322 190.038 318.28 190.218 318.28ZM204.261 319.198H199.887C199.755 319.198 199.653 319.162 199.581 319.09C199.509 319.006 199.473 318.904 199.473 318.784V318.136C199.473 318.016 199.509 317.92 199.581 317.848C199.653 317.764 199.755 317.722 199.887 317.722H204.459C205.203 317.722 205.863 317.896 206.439 318.244C207.027 318.592 207.483 319.096 207.807 319.756C208.143 320.404 208.311 321.19 208.311 322.114V327.586C208.311 327.706 208.269 327.808 208.185 327.892C208.113 327.964 208.017 328 207.897 328H203.253C203.133 328 203.031 327.964 202.947 327.892C202.875 327.808 202.839 327.706 202.839 327.586V326.974C202.839 326.854 202.875 326.758 202.947 326.686C203.031 326.602 203.133 326.56 203.253 326.56H206.673V322.222C206.673 321.61 206.565 321.076 206.349 320.62C206.145 320.164 205.857 319.816 205.485 319.576C205.125 319.324 204.717 319.198 204.261 319.198ZM199.707 328C199.599 328 199.509 327.958 199.437 327.874C199.365 327.79 199.335 327.688 199.347 327.568L200.877 318.748C200.901 318.628 200.955 318.538 201.039 318.478C201.123 318.406 201.225 318.382 201.345 318.406L202.065 318.442C202.185 318.454 202.281 318.508 202.353 318.604C202.425 318.688 202.443 318.79 202.407 318.91L200.985 327.568C200.973 327.688 200.919 327.79 200.823 327.874C200.739 327.958 200.637 328 200.517 328H199.707ZM211.696 319.162C211.576 319.162 211.474 319.126 211.39 319.054C211.318 318.97 211.282 318.868 211.282 318.748V318.136C211.282 318.016 211.318 317.92 211.39 317.848C211.474 317.764 211.576 317.722 211.696 317.722H215.602C216.634 317.722 217.486 317.89 218.158 318.226C218.842 318.55 219.352 319.042 219.688 319.702C220.024 320.35 220.192 321.154 220.192 322.114V327.586C220.192 327.706 220.15 327.808 220.066 327.892C219.994 327.964 219.898 328 219.778 328H218.968C218.836 328 218.734 327.964 218.662 327.892C218.59 327.808 218.554 327.706 218.554 327.586V322.204C218.554 321.244 218.308 320.5 217.816 319.972C217.336 319.432 216.562 319.162 215.494 319.162H211.696ZM213.316 318.28H213.766C213.946 318.28 214.078 318.328 214.162 318.424C214.258 318.508 214.3 318.616 214.288 318.748C214.192 319.252 214.108 319.708 214.036 320.116C213.976 320.524 213.934 320.932 213.91 321.34C213.886 321.736 213.874 322.186 213.874 322.69L213.91 327.586C213.91 327.706 213.874 327.808 213.802 327.892C213.73 327.964 213.634 328 213.514 328L210.958 327.964C210.838 327.964 210.736 327.928 210.652 327.856C210.58 327.784 210.544 327.682 210.544 327.55V326.974C210.544 326.854 210.58 326.758 210.652 326.686C210.736 326.602 210.838 326.56 210.958 326.56L212.344 326.578V322.762C212.344 322.27 212.35 321.82 212.362 321.412C212.374 320.992 212.41 320.572 212.47 320.152C212.53 319.732 212.626 319.258 212.758 318.73C212.794 318.598 212.848 318.49 212.92 318.406C213.004 318.322 213.136 318.28 213.316 318.28ZM223.273 328C223.153 328 223.051 327.964 222.967 327.892C222.895 327.808 222.859 327.706 222.859 327.586V318.136C222.859 318.016 222.895 317.92 222.967 317.848C223.051 317.764 223.153 317.722 223.273 317.722H226.765C227.809 317.722 228.667 317.89 229.339 318.226C230.023 318.55 230.533 319.042 230.869 319.702C231.205 320.35 231.373 321.166 231.373 322.15V327.586C231.373 327.706 231.331 327.808 231.247 327.892C231.175 327.964 231.079 328 230.959 328H230.149C230.017 328 229.915 327.964 229.843 327.892C229.771 327.808 229.735 327.706 229.735 327.586V322.204C229.735 321.244 229.495 320.5 229.015 319.972C228.535 319.432 227.755 319.162 226.675 319.162H224.497V327.586C224.497 327.706 224.461 327.808 224.389 327.892C224.317 327.964 224.215 328 224.083 328H223.273ZM241.292 328C241.172 328 241.07 327.964 240.986 327.892C240.914 327.808 240.878 327.706 240.878 327.586V322.204C240.878 321.244 240.638 320.5 240.158 319.972C239.678 319.432 238.904 319.162 237.836 319.162H234.452C234.332 319.162 234.23 319.126 234.146 319.054C234.074 318.97 234.038 318.868 234.038 318.748V318.136C234.038 318.016 234.074 317.92 234.146 317.848C234.23 317.764 234.332 317.722 234.452 317.722H237.926C239.486 317.722 240.638 318.1 241.382 318.856C242.138 319.612 242.516 320.71 242.516 322.15V327.586C242.516 327.706 242.474 327.808 242.39 327.892C242.318 327.964 242.222 328 242.102 328H241.292ZM234.452 328C234.332 328 234.23 327.964 234.146 327.892C234.074 327.808 234.038 327.706 234.038 327.586V321.574C234.038 321.454 234.074 321.358 234.146 321.286C234.23 321.202 234.332 321.16 234.452 321.16H235.262C235.394 321.16 235.496 321.202 235.568 321.286C235.64 321.358 235.676 321.454 235.676 321.574V327.586C235.676 327.706 235.64 327.808 235.568 327.892C235.496 327.964 235.394 328 235.262 328H234.452Z" fill="#627D9E"/>
<path d="M180.04 357C179.88 357 179.744 356.944 179.632 356.832C179.52 356.72 179.464 356.584 179.464 356.424V349.296C179.464 348.272 179.208 347.488 178.696 346.944C178.2 346.4 177.408 346.128 176.32 346.128H171.16C170.984 346.128 170.84 346.072 170.728 345.96C170.616 345.848 170.56 345.704 170.56 345.528V343.896C170.56 343.72 170.616 343.576 170.728 343.464C170.84 343.352 170.984 343.296 171.16 343.296H176.44C178.568 343.296 180.176 343.784 181.264 344.76C182.368 345.736 182.92 347.24 182.92 349.272V356.4C182.92 356.576 182.864 356.72 182.752 356.832C182.64 356.944 182.496 357 182.32 357H180.04ZM171.16 357C170.984 357 170.84 356.944 170.728 356.832C170.616 356.72 170.56 356.576 170.56 356.4V349.08C170.56 348.92 170.616 348.784 170.728 348.672C170.84 348.544 170.984 348.48 171.16 348.48H173.44C173.6 348.48 173.736 348.544 173.848 348.672C173.96 348.784 174.016 348.92 174.016 349.08V356.4C174.016 356.576 173.96 356.72 173.848 356.832C173.736 356.944 173.6 357 173.44 357H171.16ZM195.248 357C195.008 357 194.824 356.944 194.696 356.832C194.584 356.704 194.496 356.608 194.432 356.544L185.768 344.16C185.688 344.048 185.648 343.928 185.648 343.8C185.648 343.672 185.696 343.56 185.792 343.464C185.888 343.352 186.008 343.296 186.152 343.296H188.432C188.672 343.296 188.848 343.36 188.96 343.488C189.072 343.6 189.16 343.696 189.224 343.776L197.984 356.136C198.048 356.216 198.088 356.288 198.104 356.352C198.12 356.4 198.128 356.448 198.128 356.496C198.128 356.624 198.072 356.744 197.96 356.856C197.864 356.952 197.752 357 197.624 357H195.248ZM186.08 357C185.92 357 185.784 356.944 185.672 356.832C185.56 356.704 185.504 356.552 185.504 356.376V353.208C185.504 352.36 185.576 351.6 185.72 350.928C185.88 350.24 186.168 349.608 186.584 349.032C187 348.456 187.608 347.904 188.408 347.376L190.088 349.8C189.64 350.104 189.304 350.456 189.08 350.856C188.872 351.256 188.736 351.664 188.672 352.08C188.608 352.48 188.576 352.856 188.576 353.208V356.376C188.576 356.568 188.52 356.72 188.408 356.832C188.296 356.944 188.16 357 188 357H186.08ZM194.6 352.416L192.968 350.016C193.56 349.728 193.976 349.416 194.216 349.08C194.456 348.744 194.6 348.4 194.648 348.048C194.712 347.68 194.744 347.32 194.744 346.968V343.92C194.744 343.728 194.8 343.576 194.912 343.464C195.024 343.352 195.16 343.296 195.32 343.296H197.36C197.52 343.296 197.656 343.36 197.768 343.488C197.88 343.6 197.936 343.744 197.936 343.92V347.064C197.936 347.72 197.848 348.36 197.672 348.984C197.512 349.608 197.192 350.208 196.712 350.784C196.248 351.36 195.544 351.904 194.6 352.416ZM201.298 351.36C201.122 351.36 200.978 351.304 200.866 351.192C200.754 351.08 200.698 350.936 200.698 350.76V343.896C200.698 343.72 200.754 343.576 200.866 343.464C200.978 343.352 201.122 343.296 201.298 343.296H203.698C203.858 343.296 203.994 343.352 204.106 343.464C204.218 343.576 204.274 343.72 204.274 343.896V350.76C204.274 350.936 204.218 351.08 204.106 351.192C203.994 351.304 203.858 351.36 203.698 351.36H201.298ZM207.695 357C207.519 357 207.375 356.944 207.263 356.832C207.151 356.72 207.095 356.576 207.095 356.4V354.696C207.095 354.536 207.151 354.4 207.263 354.288C207.375 354.16 207.519 354.096 207.695 354.096H213.599L206.447 344.184C206.415 344.104 206.383 344.032 206.351 343.968C206.319 343.904 206.303 343.84 206.303 343.776C206.303 343.632 206.351 343.52 206.447 343.44C206.559 343.344 206.679 343.296 206.807 343.296H209.207C209.415 343.296 209.575 343.352 209.687 343.464C209.799 343.56 209.879 343.648 209.927 343.728L217.367 354.072C217.447 354.168 217.519 354.28 217.583 354.408C217.647 354.52 217.679 354.664 217.679 354.84V356.4C217.679 356.576 217.623 356.72 217.511 356.832C217.399 356.944 217.255 357 217.079 357H207.695ZM214.943 351.384L213.215 349.032C213.871 348.696 214.327 348.224 214.583 347.616C214.839 347.008 214.967 346.296 214.967 345.48V343.92C214.967 343.728 215.023 343.576 215.135 343.464C215.263 343.352 215.407 343.296 215.567 343.296H217.607C217.767 343.296 217.903 343.36 218.015 343.488C218.127 343.6 218.183 343.744 218.183 343.92V346.08C218.183 347.248 217.903 348.296 217.343 349.224C216.799 350.136 215.999 350.856 214.943 351.384ZM221.454 351.36C221.278 351.36 221.134 351.304 221.022 351.192C220.91 351.08 220.854 350.936 220.854 350.76V343.896C220.854 343.72 220.91 343.576 221.022 343.464C221.134 343.352 221.278 343.296 221.454 343.296H223.854C224.014 343.296 224.15 343.352 224.262 343.464C224.374 343.576 224.43 343.72 224.43 343.896V350.76C224.43 350.936 224.374 351.08 224.262 351.192C224.15 351.304 224.014 351.36 223.854 351.36H221.454Z" fill="#27292B"/>
<defs>
<filter id="filter0_d_4621_52649" x="-142" y="0" width="678" height="678" filterUnits="userSpaceOnUse" color-interpolation-filters="sRGB">
<feFlood flood-opacity="0" result="BackgroundImageFix"/>
<feColorMatrix in="SourceAlpha" type="matrix" values="0 0 0 0 0 0 0 0 0 0 0 0 0 0 0 0 0 0 127 0" result="hardAlpha"/>
<feOffset dy="4"/>
<feGaussianBlur stdDeviation="97"/>
<feComposite in2="hardAlpha" operator="out"/>
<feColorMatrix type="matrix" values="0 0 0 0 1 0 0 0 0 1 0 0 0 0 1 0 0 0 1 0"/>
<feBlend mode="normal" in2="BackgroundImageFix" result="effect1_dropShadow_4621_52649"/>
<feBlend mode="normal" in="SourceGraphic" in2="effect1_dropShadow_4621_52649" result="shape"/>
</filter>
<filter id="filter1_d_4621_52649" x="45" y="187" width="304" height="304" filterUnits="userSpaceOnUse" color-interpolation-filters="sRGB">
<feFlood flood-opacity="0" result="BackgroundImageFix"/>
<feColorMatrix in="SourceAlpha" type="matrix" values="0 0 0 0 0 0 0 0 0 0 0 0 0 0 0 0 0 0 127 0" result="hardAlpha"/>
<feOffset dy="4"/>
<feGaussianBlur stdDeviation="17"/>
<feComposite in2="hardAlpha" operator="out"/>
<feColorMatrix type="matrix" values="0 0 0 0 0.107993 0 0 0 0 0.668964 0 0 0 0 0.612867 0 0 0 0.6 0"/>
<feBlend mode="normal" in2="BackgroundImageFix" result="effect1_dropShadow_4621_52649"/>
<feBlend mode="normal" in="SourceGraphic" in2="effect1_dropShadow_4621_52649" result="shape"/>
</filter>
</defs>
</svg>
