<svg width="28" height="29" viewBox="0 0 28 29" fill="none" xmlns="http://www.w3.org/2000/svg">
<g clip-path="url(#clip0_129_1431)">
<path d="M21.9605 14.8267C21.7401 14.8267 21.5341 14.9113 21.3804 15.0649L17.2242 19.2211C17.706 19.4931 18.1535 19.8256 18.5546 20.2109L22.5405 16.225C22.8603 15.9052 22.8603 15.3847 22.5405 15.0649C22.3869 14.9113 22.1809 14.8267 21.9605 14.8267Z" fill="black"/>
<path d="M14 0.5C6.28037 0.5 0 6.78037 0 14.5C0 22.2196 6.28037 28.5 14 28.5C21.7196 28.5 28 22.2196 28 14.5C28 6.78037 21.7196 0.5 14 0.5ZM16.3051 8.9659C16.734 8.81939 17.2001 9.04831 17.3465 9.47706C17.615 10.2629 18.3533 10.7909 19.1838 10.7909C20.0136 10.7909 20.7517 10.2634 21.0205 9.47832C21.1672 9.04973 21.6334 8.82114 22.0623 8.96792C22.4908 9.11465 22.7194 9.58108 22.5726 10.0097C22.0768 11.4582 20.7149 12.4315 19.1838 12.4315C17.6515 12.4315 16.2893 11.4573 15.7941 10.0073C15.6476 9.57862 15.8765 9.11235 16.3051 8.9659ZM5.43162 10.0074C5.28516 9.57862 5.51403 9.11235 5.94273 8.96595C6.37159 8.81945 6.83769 9.04837 6.98414 9.47712C7.25255 10.263 7.99088 10.7909 8.82131 10.7909C9.6512 10.7909 10.3893 10.2634 10.658 9.47837C10.8048 9.04979 11.2711 8.8212 11.6998 8.96798C12.1284 9.1147 12.357 9.58113 12.2102 10.0097C11.7144 11.4583 10.3525 12.4316 8.82131 12.4316C7.28908 12.4315 5.92687 11.4573 5.43162 10.0074ZM23.7006 17.3851L19.5902 21.4956C19.6059 21.5212 19.6222 21.5464 19.6376 21.5723C19.8695 21.9615 19.742 22.465 19.3528 22.6969C19.2212 22.7753 19.0765 22.8126 18.9337 22.8126C18.6542 22.8126 18.3817 22.6697 18.2283 22.412C17.3453 20.93 15.7251 20.0094 14.0001 20.0094C12.2799 20.0094 10.662 20.9261 9.77796 22.4017C9.54521 22.7903 9.04137 22.9167 8.65271 22.6838C8.2641 22.4509 8.13777 21.9471 8.37063 21.5585C9.54942 19.591 11.7065 18.3688 14.0001 18.3688C14.5325 18.3688 15.0572 18.4354 15.5642 18.561L20.2205 13.9048C20.684 13.4412 21.302 13.186 21.9606 13.186C22.6192 13.186 23.2372 13.4412 23.7007 13.9048C24.6601 14.8644 24.6601 16.4256 23.7006 17.3851Z" fill="black"/>
</g>
<defs>
<clipPath id="clip0_129_1431">
<rect width="28" height="28" fill="white" transform="translate(0 0.5)"/>
</clipPath>
</defs>
</svg>
